<svg width="669" height="1796" viewBox="0 0 669 1796" fill="none" xmlns="http://www.w3.org/2000/svg">
<path d="M428.049 209.066C514.693 163.062 586.799 8.84586 684.549 0.565733C772.892 -6.91755 823.493 61.1321 881.644 128.057C1066.52 340.82 915.172 567.194 914.644 849.056C914.441 957.622 948.939 1092.72 987.858 1226.54C1007.39 1200.38 1023.67 1171.92 1035.59 1141.35C1066.69 1009.73 1084.18 950.987 1049 1098.5C1045.49 1113.2 1040.99 1127.49 1035.59 1141.35C1025.94 1182.18 1014.98 1230.03 1003.88 1280.91C1090.98 1573.68 1179.6 1841.98 946.5 1789C904.813 1779.53 955.7 1501.68 1003.88 1280.91C998.507 1262.86 993.142 1244.71 987.858 1226.54C859.728 1398.19 591.547 1471.24 495.5 1395C385.904 1308.01 164.364 1214.37 161 1057C158.258 928.728 211.964 736.832 201 609C185.774 431.464 -82.5445 349.603 27 209.066C142.963 148.121 312.344 270.499 428.049 209.066Z" fill="url(#paint0_linear_48_30)"/>
<defs>
<linearGradient id="paint0_linear_48_30" x1="547.399" y1="-11.4343" x2="547.399" y2="1781.92" gradientUnits="userSpaceOnUse">
<stop stop-color="#17A398" stop-opacity="0.1"/>
<stop offset="0.125" stop-color="#17A398" stop-opacity="0.15"/>
<stop offset="0.427083" stop-color="#17A398" stop-opacity="0.27"/>
<stop offset="0.723958" stop-color="#17A398" stop-opacity="0.17"/>
<stop offset="0.932292" stop-color="#C6E8E6" stop-opacity="0"/>
</linearGradient>
</defs>
</svg>
